<?xml version="1.0" encoding="UTF-8"?>
<svg xmlns="http://www.w3.org/2000/svg" viewBox="0 0 100 100" width="1024" height="1024"><g transform="rotate(0 50 50)"><path d="M50 50 L50 14 Q58 22 50 30 Q42 22 50 14 Z" fill="#5B5BD6" opacity="0.92"/></g><g transform="rotate(60 50 50)"><path d="M50 50 L50 14 Q58 22 50 30 Q42 22 50 14 Z" fill="#7A5CF0" opacity="0.92"/></g><g transform="rotate(120 50 50)"><path d="M50 50 L50 14 Q58 22 50 30 Q42 22 50 14 Z" fill="#B7A6F2" opacity="0.92"/></g><g transform="rotate(180 50 50)"><path d="M50 50 L50 14 Q58 22 50 30 Q42 22 50 14 Z" fill="#5B5BD6" opacity="0.92"/></g><g transform="rotate(240 50 50)"><path d="M50 50 L50 14 Q58 22 50 30 Q42 22 50 14 Z" fill="#7A5CF0" opacity="0.92"/></g><g transform="rotate(300 50 50)"><path d="M50 50 L50 14 Q58 22 50 30 Q42 22 50 14 Z" fill="#B7A6F2" opacity="0.92"/></g><polygon points="50,38 60,44 50,50 40,44" fill="#B7A6F2" opacity="0.95"/><polygon points="60,44 60,56 50,62 50,50" fill="#7A5CF0" opacity="0.95"/><polygon points="40,44 50,50 50,62 40,56" fill="#5B5BD6" opacity="0.78"/></svg>